<svg xmlns="http://www.w3.org/2000/svg" xmlns:xlink="http://www.w3.org/1999/xlink" viewBox="0 0 1016 571.5" height="2160" width="3840"><defs><linearGradient id="a"><stop offset="0"/><stop offset=".479" stop-color="#3771c8"/><stop offset="1" stop-color="#4ece4e"/></linearGradient><linearGradient xlink:href="#a" id="b" x1="0" y1="297" x2="3840" y2="-1863" gradientUnits="userSpaceOnUse" gradientTransform="matrix(.26458 0 0 .26458 0 218.419)"/></defs><path fill="url(#b)" d="M0-274.5h1016V297H0z" transform="translate(0 274.5)"/><path d="M941.369 48.92L1016 0H902.798z" fill="#4cc55a"/><path d="M0 54.19L28.087 0H0z" fill="#1c3a67"/><path d="M28.087 0l49.405 69.19L111.947 0z" fill="#22457a"/><path d="M941.369 48.92L1016 54.19V0z" fill="#4dc856"/><path d="M111.947 0l125.24 72.028L284.08 0z" fill="#2d5da5"/><path d="M766.025 81.758L789.647 0h-28.89z" fill="#46ac7b"/><path d="M0 54.19l77.492 15L28.087 0z" fill="#1c3a66"/><path d="M146.104 74.056l91.082-2.028L111.946 0z" fill="#27508d"/><path d="M77.492 69.19l68.612 4.866L111.947 0z" fill="#244981"/><path d="M336.643 0l36.565 93.11L394.824 0z" fill="#3875c3"/><path d="M620.775 65.947L760.758 0H611.495z" fill="#43a189"/><path d="M499.6 104.056L611.495 0H478.684z" fill="#3e8fa1"/><path d="M499.6 104.056l121.175-38.109L611.495 0z" fill="#3f90a0"/><path d="M620.775 65.947l145.25 15.811L760.758 0z" fill="#429f8b"/><path d="M146.104 74.056l68.613 45 22.47-47.028z" fill="#285291"/><path d="M0 110.138L77.492 69.19 0 54.19z" fill="#1c3a66"/><path d="M941.369 48.92L1016 110.138V54.19z" fill="#4cc55a"/><path d="M373.208 93.11L478.684 0h-83.86z" fill="#397abd"/><path d="M284.08 0l89.128 93.11L336.643 0z" fill="#3772c7"/><path d="M373.208 93.11L499.6 104.056 478.684 0z" fill="#3b82b2"/><path d="M237.186 72.028L373.208 93.11 284.08 0z" fill="#3165b2"/><path d="M902.798 0l-13.19 136.084 51.76-87.164z" fill="#49bb67"/><path d="M766.025 81.758L902.798 0h-113.15z" fill="#46ae78"/><path d="M683.77 145.003l82.255-63.245-145.25-15.81z" fill="#429e8d"/><path d="M766.025 81.758l123.583 54.326L902.798 0z" fill="#48b56f"/><path d="M807.755 171.76l81.853-35.676-123.583-54.326z" fill="#45aa7e"/><path d="M77.492 69.19l38.92 107.841 29.692-102.975z" fill="#23477e"/><path d="M889.608 136.084L1016 110.138 941.369 48.92z" fill="#4ac061"/><path d="M532.903 179.869l87.872-113.922-121.175 38.11z" fill="#3d88a9"/><path d="M116.412 177.031l98.305-57.974-68.613-45.001z" fill="#264e89"/><path d="M0 154.328L77.492 69.19 0 110.138z" fill="#173055"/><path d="M889.608 136.084L1016 154.328v-44.19z" fill="#4abd64"/><path d="M0 154.328l116.412 22.703-38.92-107.84z" fill="#1b3864"/><path d="M683.77 145.003l123.985 26.758-41.73-90.003z" fill="#429f8c"/><path d="M373.208 93.11l81.854 114.733L499.6 104.056z" fill="#397abc"/><path d="M455.062 207.843l77.84-27.974-33.302-75.813z" fill="#3a7fb5"/><path d="M214.717 119.057l158.49-25.947-136.02-21.082z" fill="#2b589b"/><path d="M214.717 119.057l138.429 79.056L373.208 93.11z" fill="#3063b0"/><path d="M532.903 179.869l150.867-34.866-62.995-79.056z" fill="#3e8fa1"/><path d="M353.146 198.113l101.916 9.73L373.208 93.11z" fill="#356ec2"/><path d="M913.683 215.545L1016 154.328l-126.392-18.244z" fill="#48b56f"/><path d="M258.854 221.221l94.292-23.108-138.43-79.056z" fill="#2a579a"/><path d="M913.683 215.545L1016 207.843v-53.515z" fill="#49b969"/><path d="M0 207.843l116.412-30.812L0 154.328z" fill="#172f52"/><path d="M683.77 145.003l70.62 99.327 53.365-72.57z" fill="#429c8f"/><path d="M807.755 171.76l105.928 43.785-24.075-79.46z" fill="#46ad79"/><path d="M116.412 177.031l142.442 44.19-44.137-102.164z" fill="#244a82"/><path d="M583.46 275.141l100.31-130.138-150.867 34.866z" fill="#3d87ab"/><path d="M532.903 179.869l18.056 108.651 32.5-13.379z" fill="#3a7eb7"/><path d="M670.128 289.331l84.261-45.001-70.619-99.327z" fill="#3f919e"/><path d="M116.412 177.031l119.972 92.84 22.47-48.65z" fill="#22467c"/><path d="M583.46 275.141l86.668 14.19 13.642-144.328z" fill="#3e8ca4"/><path d="M834.638 300.683l79.045-85.138-105.928-43.784z" fill="#44a584"/><path d="M754.39 244.33l80.248 56.353-26.883-128.922z" fill="#429e8d"/><path d="M455.062 207.843l95.897 80.677-18.056-108.651z" fill="#3978bf"/><path d="M913.683 215.545L1016 280.817v-72.974z" fill="#49ba69"/><path d="M469.506 293.79l81.453-5.27-95.897-80.677z" fill="#3977c0"/><path d="M0 280.817l116.412-103.786L0 207.843z" fill="#152c4d"/><path d="M0 280.817l115.208 32.839 1.204-136.625z" fill="#173055"/><path d="M115.208 313.656l121.176-43.785-119.972-92.84z" fill="#204274"/><path d="M258.854 221.221l85.464 105.814 8.828-128.922z" fill="#2b589b"/><path d="M353.146 198.113l116.36 95.678-14.444-85.948z" fill="#366fc4"/><path d="M236.384 269.871l107.934 57.164-85.464-105.814z" fill="#274f8d"/><path d="M344.318 327.035l125.188-33.244-116.36-95.678z" fill="#3062ad"/><path d="M115.208 313.656l84.663 42.569 36.513-86.354z" fill="#1d3b68"/><path d="M754.39 244.33l65.402 112.3 14.846-55.947z" fill="#419b91"/><path d="M0 280.817l67.06 101.76 48.148-68.921z" fill="#0f1e36"/><path d="M0 363.927l67.06 18.65L0 280.817z" fill="#0d1a2e"/><path d="M900.442 384.604l13.24-169.059-79.044 85.138z" fill="#44a485"/><path d="M900.442 384.604L1016 280.817l-102.317-65.272z" fill="#47b273"/><path d="M819.792 356.63l80.65 27.974-65.804-83.921z" fill="#429e8d"/><path d="M754.39 244.33l28.889 145.544 36.513-33.244z" fill="#409796"/><path d="M900.442 384.604L1016 363.927v-83.11z" fill="#47b175"/><path d="M670.128 289.331l113.15 100.543L754.39 244.33z" fill="#3f919d"/><path d="M583.46 275.141l35.71 132.977 50.958-118.787z" fill="#3c86ad"/><path d="M199.87 356.225l144.448-29.19-107.934-57.164z" fill="#244a83"/><path d="M550.959 288.52l68.211 119.598-35.71-132.977z" fill="#3a7bbb"/><path d="M0 399.199l67.06-16.622L0 363.927z" fill="#0b1627"/><path d="M692.999 416.226l90.28-26.352-113.15-100.543z" fill="#3d89a8"/><path d="M619.17 408.118L693 416.226l-22.87-126.895z" fill="#3c83b0"/><path d="M344.318 327.035l83.058 98.11 42.13-131.354z" fill="#2e5fa8"/><path d="M930.936 428.794L1016 363.927l-115.558 20.677z" fill="#44a682"/><path d="M199.87 356.225l103.923 75.407 40.525-104.597z" fill="#244b84"/><path d="M930.936 428.794L1016 399.199v-35.272z" fill="#46ad79"/><path d="M67.06 382.577l132.81-26.352-84.662-42.57z" fill="#173055"/><path d="M640.837 459.2L693 416.226l-73.829-8.108z" fill="#3a7db8"/><path d="M303.793 431.632l123.583-6.487-83.058-98.11z" fill="#295394"/><path d="M879.176 477.038l51.76-48.244-30.494-44.19z" fill="#43a08a"/><path d="M427.376 425.145L550.959 288.52l-81.453 5.27z" fill="#346bbe"/><path d="M199.068 472.173l104.725-40.541-103.922-75.407z" fill="#1b3761"/><path d="M819.792 356.63l59.384 120.408 21.266-92.434z" fill="#429d8f"/><path d="M783.279 389.874l95.897 87.164-59.384-120.408z" fill="#409697"/><path d="M510.834 487.174L550.96 288.52 427.376 425.145z" fill="#346abc"/><path d="M510.834 487.174l108.336-79.056L550.96 288.52z" fill="#3874c4"/><path d="M67.06 382.577l132.008 89.596.803-115.948z" fill="#172f53"/><path d="M930.936 428.794L1016 485.957V399.2z" fill="#45aa7d"/><path d="M90.331 481.903l108.737-9.73L67.06 382.577z" fill="#0e1d33"/><path d="M0 399.199l90.331 82.704-23.272-99.326z" fill="#0c182b"/><path d="M0 485.957l90.331-4.054L0 399.2z" fill="#08111e"/><path d="M350.738 507.444l76.638-82.299-123.583 6.487z" fill="#254c87"/><path d="M510.834 487.174L640.837 459.2l-21.667-51.082z" fill="#3877c1"/><path d="M918.9 528.12l12.036-99.326-51.76 48.244z" fill="#419b91"/><path d="M918.9 528.12l97.1-42.163-85.064-57.163z" fill="#43a387"/><path d="M918.9 528.12l97.1 17.839v-60.002z" fill="#43a18a"/><path d="M783.279 389.874l6.368 181.626 89.529-94.462z" fill="#3f909f"/><path d="M692.999 416.226L760.758 571.5l22.52-181.626z" fill="#3c84af"/><path d="M303.793 431.632L284.08 571.5l66.658-64.056z" fill="#1f4072"/><path d="M0 545.959l90.331-64.056L0 485.957z" fill="#060d16"/><path d="M760.758 571.5h28.89l-6.37-181.626z" fill="#3c86ac"/><path d="M199.068 472.173L284.08 571.5l19.713-139.868z" fill="#1c3a66"/><path d="M28.087 571.5l62.244-89.597L0 545.96z" fill="#050910"/><path d="M510.834 487.174L611.495 571.5l29.342-112.3z" fill="#366fc4"/><path d="M0 571.5h28.087L0 545.959z" fill="#010204"/><path d="M394.824 571.5l32.552-146.355-76.638 82.3z" fill="#244a84"/><path d="M284.08 571.5h52.563l14.095-64.056z" fill="#1c3965"/><path d="M111.947 571.5l87.121-99.327-108.737 9.73z" fill="#0f1f37"/><path d="M394.824 571.5l116.01-84.326-83.458-62.029zM394.824 571.5h83.86l32.15-84.326z" fill="#295495"/><path d="M640.837 459.2l119.92 112.3L693 416.226z" fill="#3a7fb6"/><path d="M336.643 571.5h58.18l-44.085-64.056z" fill="#204274"/><path d="M879.176 477.038l23.622 94.462 16.101-43.38z" fill="#419796"/><path d="M28.087 571.5h83.86L90.33 481.903z" fill="#0a1525"/><path d="M789.647 571.5h113.15l-23.621-94.462z" fill="#3f929d"/><path d="M918.9 528.12l97.1 43.38v-25.541z" fill="#43a08a"/><path d="M611.495 571.5h149.263l-119.92-112.3z" fill="#397abc"/><path d="M478.684 571.5h132.811l-100.66-84.326z" fill="#2f61ac"/><path d="M902.798 571.5H1016l-97.1-43.38z" fill="#419b91"/><path d="M111.947 571.5H284.08l-85.012-99.327z" fill="#152b4b"/><path d="M0 485.957V571.5v-25.541zM0 0v110.138V54.19zM0 399.199V571.5v-85.543zM0 0v154.328-44.19zM0 0v207.843-53.515zM0 363.927V571.5 399.199zM0 0v280.817-72.974zM0 280.817V571.5 363.927zM0 0v571.5-290.683z" fill="none"/></svg>